# xmcd CD database file
#
# Track frame offsets:
#	150
#	10210
#	30794
#	44047
#	53422
#	64690
#	77482
#	94646
#	110746
#	122900
#	134827
#	146022
#	155520
#	169439
#	183551
#	189841
#	201408
#	214583
#	224379
#	242771
#	254860
#	272635
#	286891
#	299832
#
# Disc length: 4122 seconds
#
# Revision: 0
# Processed by: cddbd v1.5.2PL0 Copyright (c) Steve Scherf et al.
# Submitted via: CDex 1.60beta1
#
DISCID=7a101818
DTITLE=AAVV - The intrepid Further Adventures Of Mod Jazz
DYEAR=2008
DGENRE=Jazz
TTITLE0=The Point - Mac Rebennack and The Soul Orchestra
TTITLE1=Fredrick's Dream - Kenny Rice With Leo's Five
TTITLE2=Hot Barbeque - Jack Mcduff
TTITLE3=Cod - Albert King
TTITLE4=Tam-A-Rind - Hank Jacobs
TTITLE5=Walk Tall - Michelle Harris-Spivey
TTITLE6=All Around The World - Chuck Higgins
TTITLE7=Daddy's Blues - Ike Turner's Kings Of Rhythm
TTITLE8=Bash Dance - Bobby Donaldson
TTITLE9=Sweet Bread - The Miles Grayson Trio
TTITLE10=Listen To Louie - Richie and The Ps 54 School Yard
TTITLE11=La La La - Afro Blues Quintet
TTITLE12=Senor Blues - Dee Clarke
TTITLE13=Motherless Child - Jerry Butler
TTITLE14=Play It Cool - Billy Larkin and The Jivers
TTITLE15=Whole Lotta Something - The Merced Blue Notes
TTITLE16=Too Young - Dale Cunningham
TTITLE17=Arabian Jerk - The Merits
TTITLE18=Canteloupe Woman - George Braith
TTITLE19=Soul Zone `65 - Googie Rene Combo
TTITLE20=Camel Walking - Ike Turner's Kings Of Rhythm
TTITLE21=Take Your Shoes Off Pt I - Booker T Averhart
TTITLE22=Crazy Lover - Richard Berry
TTITLE23=Hung Over - The Martinis
EXTD=YEAR: 2008
EXTT0=
EXTT1=
EXTT2=
EXTT3=
EXTT4=
EXTT5=
EXTT6=
EXTT7=
EXTT8=
EXTT9=
EXTT10=
EXTT11=
EXTT12=
EXTT13=
EXTT14=
EXTT15=
EXTT16=
EXTT17=
EXTT18=
EXTT19=
EXTT20=
EXTT21=
EXTT22=
EXTT23=
PLAYORDER=
